<svg xmlns="http://www.w3.org/2000/svg" xmlns:xlink="http://www.w3.org/1999/xlink" version="1.1" id="Layer_1" x="0px" y="0px" viewBox="0 0 512 512" style="enable-background:new 0 0 512 512;" xml:space="preserve" width="512" height="512" class=""><g><circle style="fill:#FFFFFF" cx="256" cy="256" r="256" data-original="#0575A5" class="" data-old_color="#EFEEEE"></circle><path style="fill:#F2F0F0" d="M510.828,280.161L343.654,113.006c-0.182-0.22-0.399-0.438-0.625-0.655  c-0.069-0.069-0.141-0.143-0.218-0.22c-1.72-1.608-3.878-2.412-6.103-2.412h-96.404h-65.024c-2.268,0-4.608,0.878-6.326,2.634  c-0.73,0.712-1.265,1.536-1.69,2.404l-0.031-0.028c-0.036,0.079-0.051,0.161-0.084,0.243c-0.174,0.381-0.31,0.783-0.428,1.183  c-0.064,0.218-0.148,0.435-0.197,0.653c-0.125,0.612-0.205,1.224-0.205,1.833c0,2.34,0.878,4.611,2.634,6.367l8.12,8.113v0.806  c0,2.724,0.067,5.366,0.169,7.954c0.028,0.804,0.077,1.585,0.123,2.378c0.095,1.802,0.215,3.574,0.364,5.32  c0.069,0.842,0.148,1.684,0.228,2.522c0.179,1.787,0.397,3.533,0.64,5.256c0.087,0.643,0.164,1.3,0.261,1.93  c0.348,2.276,0.748,4.503,1.211,6.676c0.118,0.573,0.264,1.114,0.392,1.679c0.366,1.62,0.758,3.22,1.188,4.787  c0.21,0.773,0.435,1.531,0.66,2.289c0.415,1.377,0.85,2.732,1.313,4.065c0.248,0.732,0.494,1.457,0.758,2.173  c0.604,1.613,1.242,3.197,1.917,4.754c0.161,0.376,0.302,0.758,0.471,1.132c0.835,1.871,1.741,3.697,2.696,5.507  c0.338,0.643,0.701,1.277,1.062,1.915c0.678,1.221,1.377,2.437,2.115,3.638c0.417,0.678,0.842,1.354,1.277,2.03  c0.788,1.226,1.615,2.435,2.465,3.638c0.399,0.558,0.778,1.124,1.185,1.679c1.257,1.713,2.57,3.41,3.96,5.089  c0.294,0.353,0.614,0.709,0.911,1.065c1.157,1.37,2.35,2.734,3.592,4.088c0.507,0.55,1.029,1.098,1.549,1.646  c0.563,0.594,1.096,1.193,1.672,1.784l37.988,38.024c-0.632,7.127-8.323,10.906-15.864,16.755  c-38.612,29.955-54.303,56.256-54.303,104.42v6.287h-1.795c-2.268,0-4.608,0.842-6.326,2.598c-1.756,1.756-2.634,4.017-2.634,6.362  c0,2.227,0.878,4.572,2.634,6.328l111.14,111.142C402.222,499.43,499.395,402.271,510.828,280.161z" data-original="#025E90" class="" data-old_color="#F2EFEF"></path><path style="fill:#F9F9F9" d="M280.614,238.303c38.62-29.921,54.29-56.266,54.29-104.361v-6.3H177.091v6.3  c0,48.095,15.667,74.44,54.29,104.361c7.846,6.159,15.974,9.961,15.974,17.741c0,7.739-8.125,11.543-15.974,17.654  c-38.62,29.975-54.29,56.269-54.29,104.412v6.295h157.814v-6.295c0-48.143-15.67-74.437-54.29-104.412  c-7.844-6.111-15.969-9.915-15.969-17.654C264.645,248.266,272.771,244.462,280.614,238.303z" data-original="#FFFFFF" class="" data-old_color="#FFFFFF"></path><g>
	<path style="fill:#939393" d="M189.169,133.921c0,1.395,0.479,2.729,1.546,3.799c1.047,1.068,2.417,1.58,3.796,1.58h122.962   c1.357,0,2.721-0.512,3.781-1.58c1.016-1.07,1.579-2.404,1.579-3.799v-6.28H189.169V133.921z" data-original="#34495E" class="" data-old_color="#79797B"></path>
	<path style="fill:#939393" d="M175.296,127.642h161.408c2.296,0,4.588-0.881,6.315-2.634c1.789-1.766,2.647-4.032,2.647-6.359   c0-2.266-0.858-4.577-2.647-6.292c-1.728-1.764-4.017-2.642-6.315-2.642H175.296c-2.278,0-4.603,0.878-6.331,2.642   c-1.748,1.715-2.634,4.027-2.634,6.292c0,2.327,0.886,4.593,2.634,6.359C170.691,126.761,173.015,127.642,175.296,127.642z" data-original="#34495E" class="" data-old_color="#79797B"></path>
	<path style="fill:#939393" d="M336.701,384.404H175.293c-2.278,0-4.603,0.835-6.331,2.598c-1.748,1.756-2.634,4.024-2.634,6.349   c0,2.26,0.886,4.577,2.634,6.341c1.728,1.715,4.052,2.593,6.331,2.593h161.408c2.296,0,4.588-0.878,6.315-2.593   c1.789-1.761,2.647-4.081,2.647-6.341c0-2.324-0.858-4.595-2.647-6.349C341.289,385.239,339,384.404,336.701,384.404z" data-original="#34495E" class="" data-old_color="#79797B"></path>
</g><rect x="189.169" y="127.642" style="fill:#1A1B1C" width="133.658" height="6.28" data-original="#1A1B1C" class="" data-old_color="#2C2D2F"></rect><path style="fill:#D9E1E8" d="M280.614,238.303c38.62-29.921,54.29-56.266,54.29-104.361v-6.3H177.091v6.3  c0,48.095,15.667,74.44,54.29,104.361c7.846,6.159,15.974,9.961,15.974,17.741c0,7.739-8.125,11.543-15.974,17.654  c-38.62,29.975-54.29,56.269-54.29,104.412v6.295h157.814v-6.295c0-48.143-15.67-74.437-54.29-104.412  c-7.844-6.111-15.969-9.915-15.969-17.654C264.645,248.266,272.771,244.462,280.614,238.303z M258.396,256.044  c0,9.83,8.63,15.252,15.506,20.393c0.906,0.694,1.882,1.434,2.916,2.26c38.042,30.075,46.024,56.694,46.024,99.412H189.164  c0-42.721,7.977-69.338,46.019-99.412c1.037-0.827,2.004-1.564,2.911-2.26c6.881-5.143,15.519-10.563,15.519-20.393  c0-9.864-8.635-15.286-15.519-20.426c-0.906-0.694-1.874-1.482-2.911-2.222c-38.042-30.164-46.019-56.689-46.019-99.451h133.678  c0,42.765-7.979,69.286-46.024,99.451c-1.032,0.742-2.01,1.528-2.916,2.222C267.026,240.758,258.396,246.18,258.396,256.044z" data-original="#CEE2F2" class="" data-old_color="#E3EBF2"></path><rect x="189.169" y="127.642" style="fill:#C2CED8" width="133.658" height="6.28" data-original="#B8D1E6" class="" data-old_color="#CEDBE6"></rect><path style="fill:#85BB65" d="M322.002,358.426c-24.054-0.374-43.656-3.948-61.929-10.616c0.512-0.438,1.257-0.837,2.099-1.047  c0,0,7.818-2.03,11.159-5.294c3.343-3.279,5.015-7.306,5.015-12.088c0-4.27-1.321-7.759-3.976-10.506  c-0.512-0.517-1.257-0.975-1.756-1.644c-1.912-2.57-1.579-13.893,0.202-14.861c0.169-0.092,0.822-0.282,0.822-0.282  c1.556-0.174,2.388-1.523,1.848-2.99c0,0-1.638-4.439-4.511-6.799c-2.857-2.368-8.781-3.681-8.781-3.681  c-1.539-0.346-2.793-1.503-2.793-2.57c0-1.06-0.886-1.925-1.72-2.34c-1.331-0.653-1.216-14.999-0.064-25.713  c0.399-3.715,1.272-6.907,2.245-8.625c2.76-5.908,8.886-9.905,14.031-13.752c0.906-0.694,1.882-1.49,2.908-2.214  c13.161-10.452,22.733-20.444,29.609-30.843c-15.782,2.307-32.758,3.564-50.422,3.564c-17.669,0-34.632-1.257-50.422-3.564  c6.881,10.399,16.445,20.39,29.609,30.843c1.024,0.727,2.01,1.521,2.908,2.214c5.148,3.845,11.279,7.841,14.031,13.752  c0.975,1.718,1.833,4.91,2.248,8.625c1.152,10.263,1.446,25.277-0.108,25.969c-1.034,0.463-1.495,1.651-1.495,2.084  c0,1.068-1.254,2.232-2.788,2.586c0,0-6.659,1.518-9.818,4.452c-3.146,2.941-4.726,6.579-4.726,10.913  c0,4.265,1.39,7.895,4.186,10.895c2.78,2.99,10.46,5.737,10.46,5.737c1.475,0.532,2.685,2.248,2.685,3.82v10.865  c0,1.564-1.119,2.22-2.483,1.446c0,0-0.658-0.374-2.007-1.905c-1.336-1.523-1.787-2.788-1.787-2.788  c-0.525-1.482-2.235-2.57-3.789-2.422l-6.267,0.589c-1.556,0.148-2.435,1.482-1.948,2.97c0,0,1.987,6.021,5.056,9.011  c0.719,2.888,0.896,6.561,0.12,9.533c-14.833,4.142-30.892,6.39-49.672,6.676c-0.532,6.216-0.832,12.677-0.832,19.684h133.678  C322.839,371.103,322.529,364.641,322.002,358.426z M259.407,299.599c0-1.579,1.065-2.135,2.373-1.265l1.874,2.171  c0.689,1.426,2.514,2.429,4.081,2.255l0.612-0.069c1.748,2.527,2.253,12.022,1.833,13.548c-3.709-1.805-8.051-3.159-8.051-3.159  c-1.495-0.479-2.721-2.15-2.721-3.715L259.407,299.599L259.407,299.599z M259.407,326.159c0-1.572,1.213-2.429,2.696-1.91  c0,0,2.022,0.724,3.231,1.994c1.203,1.285,1.805,2.811,1.805,4.572c0,1.974-0.714,3.699-2.148,5.156  c-1.434,1.459-2.859,1.902-2.859,1.902c-1.495,0.466-2.721-0.428-2.721-1.999v-9.715H259.407z M250.207,309.053  c0,0-0.899-0.435-1.874-1.651c-0.97-1.188-1.467-2.488-1.467-3.886c0-1.531,0.535-2.934,1.615-4.193  c1.06-1.262,1.684-1.551,1.684-1.551c1.431-0.63,2.606,0.136,2.606,1.7v7.985C252.772,309.033,251.62,309.74,250.207,309.053z   M242.335,344.174c3.412,1.828,7.654,2.829,7.654,2.829c0.737,0.177,1.403,0.474,1.902,0.806c-3.364,1.229-6.776,2.353-10.245,3.372  C241.275,348.721,241.692,346.002,242.335,344.174z" data-original="#FF9D4D" class="active-path" data-old_color="#85bb65"></path></g> </svg>